# AST/ASF file generated using VICON BodyLanguage
# -----------------------------------------------
:version 1.10
:name VICON
:units
  mass 1.0
  length 0.45
  angle deg
:documentation
   .ast/.asf automatically generated from VICON data using
   VICON BodyBuilder and BodyLanguage model FoxedUp or BRILLIANT.MOD
:root
   order TX TY TZ RX RY RZ
   axis XYZ
   position 0 0 0  
   orientation 0 0 0 
:bonedata
  begin
     id 1 
     name lhipjoint
     direction 0.78388 -0.462562 0.414208 
     length 3.01181 
     axis 0 0 0  XYZ
  end
  begin
     id 2 
     name lfemur
     direction 0.34202 -0.939693 0  
     length 6.04673  
     axis 0 0 20  XYZ
    dof rx ry rz
    limits (-160.0 20.0)
           (-70.0 70.0)
           (-60.0 70.0)
  end
  begin
     id 3 
     name ltibia
     direction 0.34202 -0.939693 0   
     length 7.211   
     axis 0 0 20   XYZ
    dof rx
    limits (-10.0 170.0)
  end
  begin
     id 4 
     name lfoot
     direction 0.121887 -0.334882 0.934344   
     length 2.13567   
     axis -90 7.62852e-016 20   XYZ
    dof rx rz
    limits (-45.0 90.0)
           (-70.0 20.0)
  end
  begin
     id 5 
     name ltoes
     direction 1.53555e-011 -4.2179e-011 1   
     length 1.05957   
     axis -90 7.62852e-016 20   XYZ
    dof rx
    limits (-90.0 20.0)
  end
  begin
     id 6 
     name rhipjoint
     direction -0.769387 -0.475875 0.426129   
     length 2.92756  
     axis 0 0 0  XYZ 
  end
  begin
     id 7 
     name rfemur
     direction -0.34202 -0.939693 0   
     length 6.35468   
     axis 0 0 -20   XYZ
    dof rx ry rz
    limits (-160.0 20.0)
           (-70.0 70.0)
           (-70.0 60.0)
  end
  begin
     id 8 
     name rtibia
     direction -0.34202 -0.939693 0   
     length 7.37886   
     axis 0 0 -20   XYZ
    dof rx
    limits (-10.0 170.0)
 end
 begin
     id 9 
     name rfoot
     direction -0.101763 -0.279592 0.954711   
     length 2.21478  
     axis -90 -7.62852e-016 -20   XYZ
    dof rx rz
    limits (-45.0 90.0)
           (-20.0 70.0)
  end
  begin
     id 10 
     name rtoes
     direction -1.53494e-011 -4.21851e-011 1   
     length 1.10506   
     axis -90 -7.62852e-016 -20   XYZ
    dof rx
    limits (-90.0 20.0)
  end
  begin
     id 11 
     name lowerback
     direction 0.00747405 0.999267 0.0375481   
     length 2.13259   
     axis 0 0 0   XYZ
    dof rx ry rz
    limits (-20.0 45.0)
           (-30.0 30.0)
           (-30.0 30.0)
  end
  begin
     id 12 
     name upperback
     direction 0.00661626 0.996177 0.0871029   
     length 2.10528   
     axis 0 0 0   XYZ
    dof rx ry rz
    limits (-20.0 45.0)
           (-30.0 30.0)
           (-30.0 30.0)
  end
  begin
     id 13 
     name thorax
     direction 0.00320659 0.997679 0.0680167   
     length 2.11338   
     axis 0 0 0   XYZ
    dof rx ry rz
    limits (-20.0 45.0)
           (-30.0 30.0)
           (-30.0 30.0)
  end
  begin
     id 14 
     name lowerneck
     direction 0.0374841 0.973033 0.227602   
     length 1.42765   
     axis 0 0 0   XYZ
    dof rx ry rz
    limits (-20.0 45.0)
           (-30.0 30.0)
           (-30.0 30.0)
  end
  begin
     id 15 
     name upperneck
     direction 0.00481585 0.989155 -0.146795   
     length 1.47593   
     axis 0 0 0   XYZ
    dof rx ry rz
    limits (-20.0 45.0)
           (-30.0 30.0)
           (-30.0 30.0)
  end
  begin
     id 16
     name head
     direction -0.00292522 0.997206 -0.0746423  
     length 1.48116  
     axis 0 0 0   XYZ
    dof rx ry rz
    limits (-20.0 45.0)
           (-30.0 30.0)
           (-30.0 30.0)
  end
  begin
     id 17 
     name lclavicle
     direction 0.951444 0.305606 0.0368784  
     length 3.01855  
     axis 0 0 0   XYZ
    dof ry rz
    limits (-20.0 10.0)
           (0.0 20.0)
  end
  begin
     id 18 
     name lhumerus
     direction 1 -4.48977e-011 2.61664e-027   
     length 5.52731   
     axis 180 -30 -90   XYZ
    dof rx ry rz
    limits (-60.0 90.0)
           (-90.0 90.0)
           (-90.0 90.0)
  end
  begin
     id 19
     name lradius
     direction 1 -4.48944e-011 8.22157e-027   
     length 3.11059   
     axis 180 -30 -90   XYZ
    dof rx
    limits (-10.0 170.0)
  end
  begin
     id 20
     name lwrist
     direction 1 -4.48976e-011 1.5779e-026   
     length 1.5553   
     axis -1.15221e-014 90 90   XYZ
    dof ry
    limits (-180.0 0.0)
 end
  begin
     id 21 
     name lhand
     direction 1 -4.49025e-011 3.1558e-026   
     length 0.419626   
     axis -2.01367e-014 90 90   XYZ
    dof rx rz
    limits (-90.0 90.0)
           (-45.0 45.0)
  end
  begin
     id 22 
     name lfingers
     direction 1 -4.4904e-011 6.31161e-026   
     length 0.338313   
     axis -4.02734e-014 90 90   XYZ
    dof rx
    limits (0.0 90.0)
  end
  begin
     id 23
     name lthumb
     direction 0.707107 -6.35004e-011 0.707107   
     length 0.485752   
     axis -90 45 2.85299e-015   XYZ
    dof rx rz
    limits (-45.0 45.0)
           (-45.0 45.0)
  end
  begin
     id 24 
     name rclavicle
     direction -0.968876 0.223791 0.105816   
     length 3.04177  
     axis 0 0 0   XYZ 
    dof ry rz
    limits (-10.0 20.0)
           (-20.0 0.0)
  end
  begin
     id 25 
     name rhumerus
     direction -1 -4.48962e-011 -1.01384e-027  
     length 5.25396   
     axis 180 30 90   XYZ
    dof rx ry rz
    limits (-90.0 60.0)
           (-90.0 90.0)
           (-90.0 90.0)
  end
  begin
     id 26 
     name rradius
     direction -1 -4.48955e-011 8.88542e-027   
     length 3.10567   
     axis 180 30 90   XYZ
    dof rx
    limits (-10.0 170.0)
  end
  begin
     id 27 
     name rwrist
     direction -1 -4.48994e-011 1.5779e-026   
     length 1.55283   
     axis -1.15221e-014 -90 -90   XYZ
    dof ry
    limits (-180.0 0.0)
  end
  begin
     id 28
     name rhand
     direction -1 -4.48891e-011 3.1558e-026   
     length 0.498676   
     axis -2.01367e-014 -90 -90   XYZ
    dof rx rz
    limits (-90.0 90.0)
           (-45.0 45.0)
  end
  begin
     id 29
     name rfingers
     direction -1 -4.48972e-011 6.31161e-026   
     length 0.402045   
     axis -4.02734e-014 -90 -90   XYZ
    dof rx
    limits (0.0 90.0)
  end
  begin
     id 30
     name rthumb
     direction -0.707107 -6.34849e-011 0.707107   
     length 0.577259   
     axis -90 -45 -2.85299e-015   XYZ
    dof rx rz
    limits (-45.0 45.0)
           (-45.0 45.0)
  end
:hierarchy
  begin
    root lhipjoint rhipjoint lowerback
    lhipjoint lfemur
    lfemur ltibia
    ltibia lfoot
    lfoot ltoes
    rhipjoint rfemur
    rfemur rtibia
    rtibia rfoot
    rfoot rtoes
    lowerback upperback
    upperback thorax
    thorax lowerneck lclavicle rclavicle
    lowerneck upperneck
    upperneck head
    lclavicle lhumerus
    lhumerus lradius
    lradius lwrist
    lwrist lhand lthumb
    lhand lfingers
    rclavicle rhumerus
    rhumerus rradius
    rradius rwrist
    rwrist rhand rthumb
    rhand rfingers
  end

#!OML:ASF H:\Pregnant\Project 1\Capture day 1\Session 1\femalepreg.ASF
:FULLY-SPECIFIED
:DEGREES
496
root 1.75202 9.17121 19.6804 -112.831 15.3601 186.254
lowerback 4.60227 3.51362 -3.23572
upperback -5.64164 4.4069 -2.42544
thorax -8.57889 2.33829 -1.29509
lowerneck -58.3461 4.45859 6.20739
upperneck 2.21872 7.53081 -3.96882
head 7.65504 5.21907 -0.813348
rclavicle -6.20208e-014 8.44835e-015
rhumerus 20.7014 11.2719 -88.4765
rradius 19.6551
rwrist 24.4366
rhand -47.487 -21.9041
rfingers 7.12502
rthumb -20.1754 -50.8764
lclavicle -6.20208e-014 8.44835e-015
lhumerus 57.6623 -57.5353 -3.94604
lradius 48.2729
lwrist 44.351
lhand -25.0318 -337.857
lfingers 7.12502
lthumb 1.48089 52.1172
rfemur -3.01496 22.1627 6.46132
rtibia -3.81667e-014
rfoot -27.149 -24.8413
rtoes -47.582
lfemur -166.498 1.85772 -34.275
ltibia 91.4745
lfoot 10.5064 -7.60468
ltoes 8.2456
497
root 1.75981 9.16741 19.6787 -112.835 15.2755 186.191
lowerback 4.60515 3.4151 -3.25512
upperback -5.59977 4.27499 -2.38934
thorax -8.53791 2.27518 -1.22767
lowerneck -58.1248 4.54873 6.28233
upperneck 2.22125 7.56515 -4.07883
head 7.65555 5.19875 -0.86434
rclavicle -2.20651e-014 -9.98893e-015
rhumerus 20.7455 11.429 -88.6063
rradius 19.7526
rwrist 24.4262
rhand -47.5114 -21.8796
rfingers 7.12502
rthumb -20.1988 -50.8494
lclavicle -2.20651e-014 -9.98893e-015
lhumerus 56.3695 -56.7042 -2.98028
lradius 49.2415
lwrist 43.6791
lhand -23.1125 -337.557
lfingers 7.12502
lthumb 3.33449 52.3971
rfemur -2.97243 22.1098 6.5294
rtibia -3.81667e-014
rfoot -27.1135 -24.7337
rtoes -47.6299
lfemur -166.511 1.74409 -34.4112
ltibia 91.459
lfoot 10.512 -7.7169
ltoes 8.42823
498
root 1.76785 9.16371 19.677 -112.835 15.1875 186.12
lowerback 4.61002 3.31325 -3.28033
upperback -5.55965 4.13775 -2.35935
thorax -8.4997 2.20968 -1.16318
lowerneck -57.8986 4.64305 6.36571
upperneck 2.23907 7.59444 -4.18089
head 7.66114 5.1757 -0.913841
rclavicle -5.62561e-014 -1.19271e-015
rhumerus 20.7864 11.5892 -88.7348
rradius 19.8593
rwrist 24.41
rhand -47.5457 -21.8679
rfingers 7.12502
rthumb -20.2318 -50.8342
lclavicle -5.62561e-014 -1.19271e-015
lhumerus 55.209 -55.8288 -2.11897
lradius 50.1906
lwrist 42.886
lhand -21.4558 -337.43
lfingers 7.12502
lthumb 4.93425 52.4927
rfemur -2.93426 22.0465 6.59596
rtibia -3.18055e-015
rfoot -27.0709 -24.6295
rtoes -47.6818
lfemur -166.524 1.61924 -34.5523
ltibia 91.4366
lfoot 10.5237 -7.8447
ltoes 8.5507
499
root 1.77622 9.16012 19.6755 -112.833 15.0989 186.039
lowerback 4.62041 3.21006 -3.31633
upperback -5.52005 3.99724 -2.33473
thorax -8.46544 2.14304 -1.09849
lowerneck -57.6743 4.73029 6.44368
upperneck 2.27938 7.61115 -4.25922
head 7.67349 5.1483 -0.95489
rclavicle 3.42158e-014 1.91082e-014
rhumerus 20.8263 11.7586 -88.8517
rradius 19.9758
rwrist 24.3867
rhand -47.5926 -21.8803
rfingers 7.12502
rthumb -20.2769 -50.8419
lclavicle 3.42158e-014 1.91082e-014
lhumerus 54.2132 -54.9302 -1.38279
lradius 51.0935
lwrist 41.8874
lhand -20.1157 -337.44
lfingers 7.12502
lthumb 6.22815 52.4482
rfemur -2.89779 21.974 6.65924
rtibia -3.18055e-014
rfoot -27.0223 -24.5222
rtoes -47.7267
lfemur -166.531 1.48992 -34.6928
ltibia 91.4092
lfoot 10.5409 -7.98322
ltoes 8.61339
500
root 1.78502 9.15683 19.6738 -112.832 15.0139 185.949
lowerback 4.63851 3.10787 -3.37015
upperback -5.4796 3.85583 -2.3149
thorax -8.4355 2.0768 -1.02943
lowerneck -57.4635 4.80285 6.50568
upperneck 2.35087 7.61073 -4.30256
head 7.69544 5.11576 -0.982206
rclavicle -1.14425e-014 1.55301e-015
rhumerus 20.867 11.9335 -88.952
rradius 20.1005
rwrist 24.3584
rhand -47.6524 -21.9131
rfingers 7.12502
rthumb -20.3344 -50.8686
lclavicle -1.14425e-014 1.55301e-015
lhumerus 53.4079 -54.0313 -0.793577
lradius 51.9281
lwrist 40.5943
lhand -19.1215 -337.571
lfingers 7.12502
lthumb 7.18792 52.2864
rfemur -2.86209 21.8944 6.71555
rtibia -2.22639e-014
rfoot -26.9678 -24.4161
rtoes -47.7699
lfemur -166.534 1.36186 -34.8346
ltibia 91.3817
lfoot 10.5567 -8.12458
ltoes 8.64649
501
root 1.79428 9.15387 19.6719 -112.829 14.9302 185.852
lowerback 4.66233 3.00711 -3.44251
upperback -5.43764 3.71445 -2.29447
thorax -8.40831 2.01161 -0.949791
lowerneck -57.2701 4.85589 6.54334
upperneck 2.45485 7.59212 -4.30778
head 7.72735 5.07789 -0.993647
rclavicle -3.40295e-014 -1.40889e-014
rhumerus 20.9132 12.1159 -89.0302
rradius 20.2292
rwrist 24.3236
rhand -47.7218 -21.9716
rfingers 7.12502
rthumb -20.4011 -50.9199
lclavicle -3.40295e-014 -1.40889e-014
lhumerus 52.796 -53.1609 -0.36077
lradius 52.6837
lwrist 38.8922
lhand -18.48 -337.829
lfingers 7.12502
lthumb 7.80705 52.0071
rfemur -2.82704 21.8086 6.76839
rtibia 3.18055e-015
rfoot -26.9086 -24.3061
rtoes -47.8052
lfemur -166.533 1.23331 -34.978
ltibia 91.3559
lfoot 10.5632 -8.26997
ltoes 8.61793
502
root 1.80382 9.15117 19.6698 -112.826 14.8439 185.749
lowerback 4.69288 2.90795 -3.5277
upperback -5.395 3.57391 -2.27148
thorax -8.38498 1.94759 -0.860839
lowerneck -57.0894 4.88515 6.54978
upperneck 2.58612 7.55495 -4.27283
head 7.76682 5.03507 -0.987718
rclavicle 2.08724e-014 -1.50082e-014
rhumerus 20.9636 12.3016 -89.0872
rradius 20.359
rwrist 24.2779
rhand -47.8004 -22.0427
rfingers 7.12502
rthumb -20.4766 -50.983
lclavicle 2.08724e-014 -1.50082e-014
lhumerus 52.3552 -52.3294 -0.0637429
lradius 53.3638
lwrist 36.7657
lhand -18.1264 -338.208
lfingers 7.12502
lthumb 8.14837 51.6144
rfemur -2.79148 21.7155 6.82163
rtibia 3.18055e-015
rfoot -26.8492 -24.1894
rtoes -47.8344
lfemur -166.528 1.10075 -35.1216
ltibia 91.3305
lfoot 10.5549 -8.41152
ltoes 8.55122
503
root 1.81354 9.14869 19.6674 -112.821 14.7547 185.64
lowerback 4.72507 2.81069 -3.62549
upperback -5.3504 3.43506 -2.24246
thorax -8.36122 1.88522 -0.758715
lowerneck -56.9238 4.89106 6.5235
upperneck 2.74145 7.50246 -4.2059
head 7.81338 4.98788 -0.966996
rclavicle 4.59193e-014 -3.70733e-014
rhumerus 21.0216 12.489 -89.1209
rradius 20.4891
rwrist 24.2208
rhand -47.8846 -22.1165
rfingers 7.12502
rthumb -20.5575 -51.048
lclavicle 4.59193e-014 -3.70733e-014
lhumerus 52.0582 -51.5391 0.11355
lradius 53.9906
lwrist 34.2645
lhand -18.0114 -338.716
lfingers 7.12502
lthumb 8.25932 51.1021
rfemur -2.758 21.6158 6.87472
rtibia 3.18055e-015
rfoot -26.7896 -24.0663
rtoes -47.8579
lfemur -166.521 0.9643 -35.2656
ltibia 91.3062
lfoot 10.5275 -8.54168
ltoes 8.48287
504
root 1.82335 9.14621 19.6647 -112.816 14.6624 185.525
lowerback 4.76196 2.71534 -3.73505
upperback -5.30547 3.29799 -2.20463
thorax -8.34062 1.8246 -0.641213
lowerneck -56.7616 4.87374 6.46139
upperneck 2.91396 7.4376 -4.1126
head 7.86434 4.93674 -0.933045
rclavicle -4.31363e-014 3.88624e-014
rhumerus 21.0811 12.6714 -89.1371
rradius 20.6176
rwrist 24.16
rhand -47.9703 -22.1911
rfingers 7.12502
rthumb -20.6398 -51.1137
lclavicle -4.31363e-014 3.88624e-014
lhumerus 51.8625 -50.7896 0.21727
lradius 54.5835
lwrist 31.4833
lhand -18.1519 -339.364
lfingers 7.12502
lthumb 8.12377 50.4595
rfemur -2.72145 21.5104 6.9295
rtibia -3.18055e-015
rfoot -26.7316 -23.9368
rtoes -47.8754
lfemur -166.507 0.822069 -35.4101
ltibia 91.2803
lfoot 10.4783 -8.65081
ltoes 8.4099
505
root 1.83316 9.14412 19.6613 -112.816 14.5638 185.411
lowerback 4.80689 2.62342 -3.84836
upperback -5.26037 3.16517 -2.15702
thorax -8.32478 1.76645 -0.512206
lowerneck -56.5964 4.84292 6.37218
upperneck 3.10101 7.36888 -4.00929
head 7.9198 4.88309 -0.892149
rclavicle -8.24956e-015 3.06625e-014
rhumerus 21.1352 12.8489 -89.1365
rradius 20.7477
rwrist 24.0925
rhand -48.0524 -22.2462
rfingers 7.12502
rthumb -20.7187 -51.1602
lclavicle -8.24956e-015 3.06625e-014
lhumerus 51.7214 -50.0683 0.307122
lradius 55.1686
lwrist 28.5914
lhand -18.4747 -340.118
lfingers 7.12502
lthumb 7.81221 49.7173
rfemur -2.6765 21.4032 6.99258
rtibia -1.59028e-014
rfoot -26.6762 -23.792
rtoes -47.8836
lfemur -166.48 0.683008 -35.5385
ltibia 91.256
lfoot 10.4072 -8.7404
ltoes 8.25267
506
root 1.84294 9.14242 19.6569 -112.822 14.4577 185.296
lowerback 4.85922 2.53553 -3.96331
upperback -5.21478 3.03769 -2.09738
thorax -8.31296 1.71122 -0.370522
lowerneck -56.4257 4.79177 6.24989
upperneck 3.29738 7.29276 -3.89891
head 7.97762 4.82501 -0.8455
rclavicle -3.97569e-016 9.44227e-015
rhumerus 21.1869 13.0206 -89.1171
rradius 20.8786
rwrist 24.026
rhand -48.1247 -22.3045
rfingers 7.12502
rthumb -20.7882 -51.211
lclavicle -3.97569e-016 9.44227e-015
lhumerus 51.6181 -49.3709 0.410741
lradius 55.7704
lwrist 25.7785
lhand -19.1261 -340.918
lfingers 7.12502
lthumb 7.18343 48.9396
rfemur -2.62405 21.2946 7.06424
rtibia -2.8625e-014
rfoot -26.6157 -23.637
rtoes -47.8888
lfemur -166.444 0.548516 -35.6459
ltibia 91.2348
lfoot 10.317 -8.80887
ltoes 8.00025
507
root 1.85263 9.14087 19.6516 -112.83 14.3464 185.183
lowerback 4.91744 2.45246 -4.07776
upperback -5.17181 2.91677 -2.02827
thorax -8.30738 1.65945 -0.220228
lowerneck -56.2437 4.7238 6.09879
upperneck 3.50278 7.21112 -3.78814
head 8.03789 4.76208 -0.796089
rclavicle -1.16289e-014 1.65985e-014
rhumerus 21.2297 13.1848 -89.0825
rradius 21.0108
rwrist 23.9628
rhand -48.1803 -22.3578
rfingers 7.12502
rthumb -20.8416 -51.2584
lclavicle -1.16289e-014 1.65985e-014
lhumerus 51.5477 -48.7037 0.537792
lradius 56.404
lwrist 23.2079
lhand -20.0553 -341.707
lfingers 7.12502
lthumb 6.28643 48.1792
rfemur -2.56589 21.1857 7.14041
rtibia -3.18055e-014
rfoot -26.5589 -23.4593
rtoes -47.8789
lfemur -166.4 0.419142 -35.7333
ltibia 91.2162
lfoot 10.2182 -8.85835
ltoes 7.67568
